<?xml version="1.0" standalone="no"?><!DOCTYPE svg PUBLIC "-//W3C//DTD SVG 1.1//EN" "http://www.w3.org/Graphics/SVG/1.1/DTD/svg11.dtd"><svg t="1586924788833" class="icon" viewBox="0 0 1024 1024" version="1.1" xmlns="http://www.w3.org/2000/svg" p-id="1106" xmlns:xlink="http://www.w3.org/1999/xlink" width="200" height="200"><defs><style type="text/css"></style></defs><path d="M333.9 857m-60 0a60 60 0 1 0 120 0 60 60 0 1 0-120 0Z" p-id="1107" fill="#d81e06"></path><path d="M793.9 857m-60 0a60 60 0 1 0 120 0 60 60 0 1 0-120 0Z" p-id="1108" fill="#d81e06"></path><path d="M891.8 269.8c-13.2-14.5-32.1-22.8-51.7-22.8H281.6l-7.7-112.1c-1.1-15.7-14.2-27.9-29.9-27.9H144c-16.6 0-30 13.4-30 30s13.4 30 30 30h72l35.5 514.8c1.2 17.8 9 34.2 22 46.4s30 18.8 47.8 18.8h486.1c17.5 0 34.3-6.5 47.2-18.3 12.9-11.8 20.9-27.9 22.5-45.4l32.7-360c1.8-19.5-4.8-39-18-53.5z" p-id="1109" fill="#d81e06"></path></svg>